HIERARCHY
ROOT Hips
{
	OFFSET 0.000000 0.000000 0.000000
	CHANNELS 6 Xposition Yposition Zposition Zrotation Yrotation Xrotation 
	JOINT LHipJoint
	{
		OFFSET 0.000000 0.000000 0.000000
		CHANNELS 3 Zrotation Yrotation Xrotation
		JOINT LeftUpLeg
		{
			OFFSET 1.363060 -1.794630 0.839290
			CHANNELS 3 Zrotation Yrotation Xrotation
			JOINT LeftLeg
			{
				OFFSET 2.448110 -6.726130 0.000000
				CHANNELS 3 Zrotation Yrotation Xrotation
				JOINT LeftFoot
				{
					OFFSET 2.562200 -7.039590 0.000000
					CHANNELS 3 Zrotation Yrotation Xrotation
					JOINT LeftToeBase
					{
						OFFSET 0.157640 -0.433110 2.322550
						CHANNELS 3 Zrotation Yrotation Xrotation
						End Site
						{
							OFFSET 0.000000 0.000000 0.000000
						}
					}
				}
			}
		}
	}
	JOINT RHipJoint
	{
		OFFSET 0.000000 0.000000 0.000000
		CHANNELS 3 Zrotation Yrotation Xrotation
		JOINT RightUpLeg
		{
			OFFSET -1.305520 -1.794630 0.839290
			CHANNELS 3 Zrotation Yrotation Xrotation
			JOINT RightLeg
			{
				OFFSET -2.542530 -6.985550 0.000000
				CHANNELS 3 Zrotation Yrotation Xrotation
				JOINT RightFoot
				{
					OFFSET -2.568260 -7.056230 0.000000
					CHANNELS 3 Zrotation Yrotation Xrotation
					JOINT RightToeBase
					{
						OFFSET -0.164730 -0.452590 2.363150
						CHANNELS 3 Zrotation Yrotation Xrotation
						End Site
						{
							OFFSET 0.000000 0.000000 0.000000
						}
					}
				}
			}
		}
	}
	JOINT LowerBack
	{
		OFFSET 0.000000 0.000000 0.000000
		CHANNELS 3 Zrotation Yrotation Xrotation
		JOINT Spine
		{
			OFFSET 0.028270 2.035590 -0.193380
			CHANNELS 3 Zrotation Yrotation Xrotation
			JOINT Spine1
			{
				OFFSET 0.056720 2.048850 -0.042750
				CHANNELS 3 Zrotation Yrotation Xrotation
				JOINT Neck
				{
					OFFSET 0.000000 0.000000 0.000000
					CHANNELS 3 Zrotation Yrotation Xrotation
					JOINT Neck1
					{
						OFFSET -0.054170 1.746240 0.172020
						CHANNELS 3 Zrotation Yrotation Xrotation
						JOINT Head
						{
							OFFSET 0.104070 1.761360 -0.123970
							CHANNELS 3 Zrotation Yrotation Xrotation
							End Site
							{
								OFFSET 0.000000 0.000000 0.000000
							}
						}
					}
				}
				JOINT LeftShoulder
				{
					OFFSET 0.000000 0.000000 0.000000
					CHANNELS 3 Zrotation Yrotation Xrotation
					JOINT LeftArm
					{
						OFFSET 3.362410 1.200890 -0.311210
						CHANNELS 3 Zrotation Yrotation Xrotation
						JOINT LeftForeArm
						{
							OFFSET 4.983000 -0.000000 -0.000000
							CHANNELS 3 Zrotation Yrotation Xrotation
							JOINT LeftHand
							{
								OFFSET 3.483560 -0.000000 -0.000000
								CHANNELS 3 Zrotation Yrotation Xrotation
								JOINT LeftFingerBase
								{
									OFFSET 0.000000 0.000000 0.000000
									CHANNELS 3 Zrotation Yrotation Xrotation
									JOINT LeftHandIndex1
									{
										OFFSET 0.715260 -0.000000 -0.000000
										CHANNELS 3 Zrotation Yrotation Xrotation
										End Site
										{
											OFFSET 0.000000 0.000000 0.000000
										}
									}
								}
								JOINT LThumb
								{
									OFFSET 0.000000 0.000000 0.000000
									CHANNELS 3 Zrotation Yrotation Xrotation
									End Site
									{
										OFFSET 0.000000 0.000000 0.000000
									}
								}
							}
						}
					}
				}
				JOINT RightShoulder
				{
					OFFSET 0.000000 0.000000 0.000000
					CHANNELS 3 Zrotation Yrotation Xrotation
					JOINT RightArm
					{
						OFFSET -3.136600 1.374050 -0.404650
						CHANNELS 3 Zrotation Yrotation Xrotation
						JOINT RightForeArm
						{
							OFFSET -5.241900 -0.000000 -0.000000
							CHANNELS 3 Zrotation Yrotation Xrotation
							JOINT RightHand
							{
								OFFSET -3.444170 -0.000000 -0.000000
								CHANNELS 3 Zrotation Yrotation Xrotation
								JOINT RightFingerBase
								{
									OFFSET 0.000000 0.000000 0.000000
									CHANNELS 3 Zrotation Yrotation Xrotation
									JOINT RightHandIndex1
									{
										OFFSET -0.622530 -0.000000 -0.000000
										CHANNELS 3 Zrotation Yrotation Xrotation
										End Site
										{
											OFFSET 0.000000 0.000000 0.000000
										}
									}
								}
								JOINT RThumb
								{
									OFFSET 0.000000 0.000000 0.000000
									CHANNELS 3 Zrotation Yrotation Xrotation
									End Site
									{
										OFFSET 0.000000 0.000000 0.000000
									}
								}
							}
						}
					}
				}
			}
		}
	}
}
MOTION
Frames: 4
Frame Time: 0.008333
-8.572155 18.019553 -2.515820 -4.663124 -10.075018 5.570965 6.638504 2.789260 0.279712 -32.187970 -21.188124 7.277932 2.138708 2.249493 8.822232 -5.091703 -19.122541 3.021693 1.223100 -7.014600 -19.758800 -10.837807 -4.295077 -3.472781 35.773086 3.958065 8.652551 -4.427047 -7.920295 30.584095 0.186550 17.199494 -31.505607 -10.501600 17.682400 -61.152100 2.112281 2.919538 0.846157 1.066434 3.476253 2.071213 -1.631151 2.136176 2.141590 0.409849 8.911833 -29.575224 -1.567554 12.545686 22.530998 2.236700 5.098200 12.600000 8.188747 -8.672841 1.604785 -83.715582 -7.498555 10.294302 12.134832 -21.414828 -2.509205 2.139007 1.056881 -16.234082 20.214088 -19.218606 -6.288200 -7.125000 0.000000 0.000000 -6.764400 9.186300 5.638200 -8.949937 9.050761 4.626578 91.531010 -2.389680 -3.908735 -27.744691 40.670489 -6.709298 -1.904682 -2.337975 25.911055 -31.985356 10.597201 -8.519400 7.125000 0.000000 0.000000 -2.615600 -13.451800 -1.937500 
-8.567691 18.017215 -2.503489 -4.560977 -10.110104 5.573261 6.604640 2.798891 0.295857 -32.342450 -21.245573 7.331112 2.154056 2.254755 8.842273 -5.261382 -19.744784 2.857422 0.912400 -6.086600 -17.035800 -10.786550 -4.342705 -3.459735 35.145656 3.487073 7.815058 -4.573967 -8.239209 31.537627 -0.024280 16.336206 -31.652506 -10.066300 17.446900 -59.709600 2.044620 2.932316 0.682683 1.033793 3.485336 2.092067 -1.612232 2.142285 2.226721 0.046779 8.859979 -29.421728 -1.117723 12.533430 22.327335 2.416200 5.133200 12.468400 8.229325 -8.650318 1.588803 -83.808601 -7.570268 9.648964 11.787944 -21.205202 -2.663182 2.177554 1.861313 -16.091832 26.979956 -11.621182 -5.942100 -7.125000 0.000000 0.000000 -2.024300 15.472600 1.411800 -8.977596 9.051695 4.601711 91.548851 -2.298707 -3.931065 -27.584282 40.476128 -6.547965 -1.809926 -2.515145 26.040099 -30.426106 9.231952 -7.338000 7.125000 0.000000 0.000000 -1.821200 -15.171300 -1.281800 
-8.560356 18.014451 -2.495942 -4.513590 -10.066508 5.625595 6.578289 2.813133 0.296607 -32.333295 -21.174074 7.165297 2.153740 2.286631 8.925138 -5.314027 -19.996423 2.529923 0.766600 -5.591100 -15.602400 -10.732575 -4.395380 -3.433190 34.596044 3.081095 6.893263 -4.723263 -8.589175 32.538183 -0.448846 14.950636 -32.183204 -9.012100 16.815500 -56.131800 1.998505 2.927252 0.605455 1.057860 3.475483 1.989266 -1.570109 2.140411 2.232729 0.148995 8.978510 -29.325042 -1.067530 12.653347 22.409477 2.442200 5.198300 12.478700 8.239005 -8.660453 1.585405 -83.978930 -7.552623 9.097814 11.561741 -20.998209 -2.722568 2.366851 1.775585 -15.899787 28.789743 -12.659794 -6.864400 -7.125000 0.000000 0.000000 -0.965300 14.191000 0.699300 -8.997285 9.071207 4.598660 91.550212 -2.342365 -3.903437 -27.555801 40.364161 -6.401805 -1.668653 -2.737856 26.188465 -28.524219 7.680734 -6.077500 7.125000 0.000000 0.000000 -0.808700 -17.078300 -0.535600 
-8.551321 18.010199 -2.488502 -4.642993 -10.026333 5.610898 6.560777 2.845306 0.296447 -32.111498 -20.954773 6.999165 2.158464 2.329012 9.024783 -5.280945 -19.871078 2.565923 0.841200 -5.850500 -16.351200 -10.650330 -4.486346 -3.434311 33.790922 1.926472 5.738375 -4.880481 -8.974921 33.594631 -1.038075 13.036098 -32.921426 -7.534700 15.766100 -50.868700 2.200578 2.940035 0.578889 1.097189 3.484227 1.969661 -1.640782 2.152580 2.254172 0.708775 9.319418 -29.182763 -1.322428 12.963363 22.559944 2.344300 5.339900 12.545500 8.243682 -8.676273 1.579118 -84.082422 -7.502321 9.077870 11.439984 -20.841006 -2.639361 2.291205 1.784898 -15.877779 27.682028 -12.297659 -6.386600 -7.125000 0.000000 0.000000 -1.643000 14.733000 1.171600 -9.024235 9.091017 4.594743 91.559360 -2.379158 -3.883426 -27.610977 40.319617 -6.275830 -1.490805 -2.980023 26.318034 -26.478637 6.060485 -4.876000 7.125000 0.000000 0.000000 0.324800 -19.011800 0.201300 
